<svg xmlns="http://www.w3.org/2000/svg" xml:space="preserve" width="511.626px" height="511.627px" x="0px" y="0px" viewBox="0 0 511.626 511.627"><path d="M511.34 212.99c-.19-10.28-1-23.27-2.42-38.97-1.44-15.71-3.48-29.75-6.14-42.12-3.05-13.9-9.66-25.6-19.85-35.12-10.18-9.51-22.03-15.03-35.54-16.56-42.26-4.75-106.12-7.13-191.58-7.13-85.46 0-149.31 2.38-191.57 7.13-13.52 1.53-25.32 7.05-35.4 16.57-10.1 9.5-16.66 21.22-19.7 35.11-2.86 12.37-5 26.41-6.43 42.12C1.3 189.72.48 202.7.3 212.99.09 223.26 0 237.54 0 255.8s.1 32.55.29 42.83c.19 10.28 1 23.27 2.42 38.97 1.43 15.7 3.48 29.74 6.14 42.11 3.05 13.9 9.66 25.6 19.84 35.12 10.19 9.52 22.04 15.04 35.55 16.56 42.26 4.76 106.11 7.14 191.57 7.14 85.47 0 149.32-2.38 191.58-7.14 13.51-1.52 25.31-7.04 35.4-16.56 10.09-9.51 16.65-21.23 19.7-35.12 2.85-12.37 5-26.4 6.43-42.11 1.42-15.7 2.23-28.7 2.42-38.97.19-10.28.29-24.55.29-42.83 0-18.27-.1-32.55-.3-42.82zm-154.46 58.24L210.71 362.6c-2.67 1.9-5.9 2.85-9.71 2.85-2.86 0-5.8-.76-8.85-2.28-6.28-3.42-9.42-8.76-9.42-15.99V164.45c0-7.22 3.14-12.56 9.42-15.98 6.47-3.43 12.65-3.24 18.56.57l146.17 91.36c5.71 3.23 8.57 8.37 8.57 15.41 0 7.04-2.86 12.19-8.57 15.42z"/></svg>
