<svg xmlns="http://www.w3.org/2000/svg" width="60px" height="60px" viewBox="0 0 32 32"><defs><linearGradient id="a" x1="0%" x2="100%" y1="0%" y2="100%" gradientUnits="userSpaceOnUse"><stop offset="0%" stop-color="#3e1f05"/><stop offset="33%" stop-color="#6a4e26"/><stop offset="66%" stop-color="#c29c63"/><stop offset="100%" stop-color="#d4b383"/></linearGradient></defs><path fill="url(#a)" d="M29 12.26h-1.88c-.2-.59-.4-1.08-.64-1.54l.03.06 1.34-1.32a1.62 1.62 0 0 0 .17-2.3l-3.18-3.18a1.61 1.61 0 0 0-2.3.18l-1.32 1.33c-.4-.2-.9-.41-1.4-.59l-.08-.02.01-1.88v-.13c0-.86-.65-1.56-1.5-1.62h-4.5A1.62 1.62 0 0 0 12.26 3v1.88c-.58.2-1.06.4-1.53.64l.07-.03-1.33-1.34a1.62 1.62 0 0 0-2.3-.17L4 7.14a1.61 1.61 0 0 0 .17 2.3l1.33 1.33c-.2.4-.41.89-.59 1.4l-.02.08H2.87c-.86 0-1.56.65-1.62 1.5v4.5a1.62 1.62 0 0 0 1.76 1.49H3h1.88c.2.58.4 1.07.64 1.54l-.03-.07-1.33 1.32a1.63 1.63 0 0 0-.18 2.3l3.18 3.18c.25.25.59.4.97.4h.02c.51-.01.97-.23 1.3-.57l1.34-1.33c.4.2.89.41 1.4.58l.07.03V29l-.01.13c0 .85.66 1.55 1.5 1.62h4.5a1.62 1.62 0 0 0 1.5-1.76v-1.88c.58-.2 1.07-.4 1.54-.64l-.07.03 1.32 1.33c.34.35.8.57 1.3.58h.03c.38 0 .72-.15.97-.4l3.18-3.17c.24-.25.4-.6.4-.97v-.03a1.87 1.87 0 0 0-.58-1.3l-1.33-1.33c.2-.4.41-.89.59-1.4l.02-.07h2.01c.86 0 1.56-.65 1.62-1.5v-4.5a1.62 1.62 0 0 0-1.76-1.49zm0 5.99-2.41-.01h-.06a.83.83 0 0 0-.5.26c-.05.07-.1.15-.14.24l-.02.04c-.24.85-.56 1.58-.95 2.27l.03-.05a.72.72 0 0 0-.09.34v.05c.01.19.09.36.2.48l.02.03 1.7 1.7c.11.12.14.22.18.18l-3.1 3.13a.4.4 0 0 1-.25-.13l-1.7-1.7c0-.02-.02-.01-.03-.02a.73.73 0 0 0-.45-.2h-.07a.72.72 0 0 0-.35.09c-.63.36-1.37.67-2.14.9l-.08.02-.04.02c-.1.04-.17.09-.25.15a.74.74 0 0 0-.1.1.73.73 0 0 0-.07.12c-.03.08-.06.18-.07.27v.01l-.01.05V29c0 .15-.06.25 0 .25l-4.41.02a.4.4 0 0 1-.09-.24V29l.02-2.4-.01-.06a.7.7 0 0 0-.03-.14.77.77 0 0 0-.05-.14 1.3 1.3 0 0 0-.17-.23.74.74 0 0 0-.1-.06.7.7 0 0 0-.15-.08l-.04-.02a9.92 9.92 0 0 1-2.27-.95l.05.03a.71.71 0 0 0-.34-.09h-.07a.73.73 0 0 0-.46.2l-.03.01-1.7 1.7c-.11.12-.22.15-.18.19l-3.14-3.1a.4.4 0 0 1 .13-.25l1.72-1.7v-.02a.73.73 0 0 0 .2-.47l.01-.06a.73.73 0 0 0-.09-.35 9.87 9.87 0 0 1-.9-2.14l-.02-.07-.02-.05-.14-.25a1.42 1.42 0 0 0-.21-.16h-.01a.69.69 0 0 0-.17-.06.65.65 0 0 0-.1-.02h-.01l-.06-.01H3c-.15 0-.25-.06-.25 0l-.02-4.41a.4.4 0 0 1 .27-.09l2.41.02c.15 0 .3-.06.4-.14a.73.73 0 0 0 .3-.38c0-.02.02-.02.02-.03.24-.85.56-1.58.95-2.27l-.03.05c.06-.1.09-.22.09-.34v-.06a.73.73 0 0 0-.2-.47l-.01-.03-1.7-1.7c-.12-.11-.15-.22-.18-.18l3.1-3.13c.1 0 .19.05.25.13l1.7 1.71c.01.02.04.01.06.03a.7.7 0 0 0 .84.1 9.99 9.99 0 0 1 2.14-.9l.07-.02.04-.02c.06-.02.1-.05.15-.08a.65.65 0 0 0 .32-.42l.03-.15V3c0-.15.06-.25 0-.25l4.42-.03a.4.4 0 0 1 .08.25V3l-.01 2.42v.04l.04.16c.07.23.24.41.46.5l.04.02c.85.24 1.58.56 2.27.95L21 7.06c.1.06.23.1.37.1a.8.8 0 0 0 .47-.2c.01-.02.04-.01.06-.03l1.7-1.7c.11-.1.22-.14.18-.18l3.13 3.1a.4.4 0 0 1-.12.25l-1.72 1.7-.01.03a.73.73 0 0 0-.2.46v.06c0 .13.03.25.08.35.37.64.68 1.37.9 2.14l.02.07c0 .02.02.02.02.03.05.14.13.26.23.34l.07.05c.11.08.25.13.4.13H29c.15 0 .24.06.25 0l.02 4.41a.38.38 0 0 1-.24.09H29zm-13-7A4.75 4.75 0 1 0 20.75 16 4.76 4.76 0 0 0 16 11.25zm0 8A3.25 3.25 0 1 1 19.25 16c0 1.8-1.46 3.25-3.25 3.25z"/></svg>
